<svg width="24" height="24" viewBox="0 0 24 24" fill="none" xmlns="http://www.w3.org/2000/svg">
  <path d="M23.5 12.275c0-.815-.073-1.596-.208-2.345H12v4.435h6.48a5.544 5.544 0 0 1-2.404 3.638v3.02h3.89c2.277-2.095 3.534-5.185 3.534-8.748Z" fill="#4285F4"/>
  <path d="M12 24c3.24 0 5.953-1.073 7.937-2.92l-3.89-3.02c-1.08.725-2.463 1.152-4.047 1.152-3.115 0-5.755-2.104-6.697-4.935H1.288v3.1C3.26 21.445 7.3 24 12 24Z" fill="#34A853"/>
  <path d="M5.303 14.277A7.221 7.221 0 0 1 4.92 12c0-.794.137-1.563.382-2.277V6.623H1.288A11.975 11.975 0 0 0 0 12c0 1.94.463 3.773 1.288 5.377l4.015-3.1Z" fill="#FBBC05"/>
  <path d="M12 4.76c1.763 0 3.34.607 4.586 1.796l3.44-3.44C17.95 1.2 15.24 0 12 0 7.3 0 3.259 2.555 1.288 6.623l4.015 3.1C6.245 7.893 8.885 5.79 12 5.79V4.76Z" fill="#EA4335"/>
</svg>
